<svg width="920" height="360" viewBox="0 0 920 360" fill="none" xmlns="http://www.w3.org/2000/svg">
<style>
@keyframes kf_Vector_8_opacity_0 {
  0% {
    animation-timing-function: linear;
    opacity: 0.2;
  }
  50% {
    animation-timing-function: linear;
    opacity: 1;
  }
  100% {
    opacity: 0.2;
  }
}
#Vector_8 {
  animation: kf_Vector_8_opacity_0 2s linear infinite;
}
@keyframes kf_Vector_9_opacity_0 {
  0% {
    animation-timing-function: linear;
    opacity: 1;
  }
  75% {
    animation-timing-function: linear;
    opacity: 0.15;
  }
  100% {
    opacity: 0.433;
  }
}
#Vector_9 {
  animation: kf_Vector_9_opacity_0 2s linear infinite;
}
@keyframes kf_Vector_10_opacity_0 {
  0% {
    animation-timing-function: linear;
    opacity: 0.3;
  }
  62.5% {
    animation-timing-function: linear;
    opacity: 1;
  }
  100% {
    opacity: 0.58;
  }
}
#Vector_10 {
  animation: kf_Vector_10_opacity_0 2s linear infinite;
}
</style>
<g id="footer" clip-path="url(#clip0_2113_9624)">
<path id="Vector" transform="translate(1 1)" d="M898 0H20C8.9543 0 0 8.9543 0 20V338C0 349.046 8.9543 358 20 358H898C909.046 358 918 349.046 918 338V20C918 8.9543 909.046 0 898 0Z" fill="url(#paint0_linear_2113_9624)" stroke="#8B5CF6" stroke-opacity="0.72" stroke-width="2"/>
<path id="KARANVISH20____SEE_YAA__" transform="translate(42 307)" d="M2.96484 16.1445L3.1582 13.5879C4.21094 13.5879 5.12044 13.3695 5.88672 12.9326C6.65299 12.4886 7.2832 11.8978 7.77734 11.1602C8.27865 10.4154 8.64746 9.57747 8.88379 8.64648C9.12728 7.70833 9.24902 6.74154 9.24902 5.74609H11.8594C11.8594 7.09961 11.6589 8.39941 11.2578 9.64551C10.8639 10.8916 10.2839 12.0052 9.51758 12.9863C8.75846 13.9603 7.82747 14.7301 6.72461 15.2959C5.62174 15.8617 4.36849 16.1445 2.96484 16.1445ZM1.50391 21V5.74609H4.06055V21H1.50391ZM9.45312 21L6.06934 13.9746L8.42188 12.8789L12.5898 21H9.45312ZM13.2666 21L17.6709 5.74609H21.001L25.4053 21H22.666L19.4326 8.72168H19.2393L16.0059 21H13.2666ZM15.415 17.7773V15.3926H23.1494V17.7773H15.415ZM29.584 15.3281V12.9434H32.5273C33.265 12.9434 33.8379 12.7357 34.2461 12.3203C34.6543 11.9049 34.8584 11.3249 34.8584 10.5801C34.8584 9.79948 34.6543 9.19792 34.2461 8.77539C33.8379 8.3457 33.265 8.13086 32.5273 8.13086H29.627L29.3691 5.74609H32.5273C34.1458 5.74609 35.3955 6.14714 36.2764 6.94922C37.1572 7.7513 37.5977 8.88997 37.5977 10.3652C37.5977 11.9336 37.1572 13.1546 36.2764 14.0283C35.3955 14.8949 34.1458 15.3281 32.5273 15.3281H29.584ZM27.1777 21V5.74609H29.7344V21H27.1777ZM35.0947 21L32.001 13.8242H34.7402L38.1562 21H35.0947ZM39.0479 21L43.4521 5.74609H46.7822L51.1865 21H48.4473L45.2139 8.72168H45.0205L41.7871 21H39.0479ZM41.1963 17.7773V15.3926H48.9307V17.7773H41.1963ZM59.3291 21L55.8271 9.20508H54.7314V5.74609H56.6865L60.1885 17.541H60.833V21H59.3291ZM53.0449 21V5.74609H55.5049V21H53.0449ZM60.5107 21V5.74609H62.9707V21H60.5107ZM68.9111 21L64.8291 5.74609H67.5039L70.8018 18.7441H70.9951L74.293 5.74609H76.9678L72.8857 21H68.9111ZM82.5 21V5.74609H85.0566V21H82.5ZM79.041 21V18.6475H88.5371V21H79.041ZM79.041 8.08789V5.74609H88.5371V8.08789H79.041ZM96.1533 21.2148C95.2868 21.2148 94.4561 21.1432 93.6611 21C92.8734 20.8568 92.1572 20.6491 91.5127 20.377L91.8564 17.7666C92.6442 18.1032 93.4176 18.361 94.1768 18.54C94.9359 18.7119 95.652 18.7979 96.3252 18.7979C97.1846 18.7979 97.8327 18.6475 98.2695 18.3467C98.7135 18.0387 98.9355 17.5911 98.9355 17.0039C98.9355 16.2376 98.4987 15.654 97.625 15.2529L95.251 14.125C94.1839 13.6237 93.3604 13.0042 92.7803 12.2666C92.2074 11.529 91.9209 10.6803 91.9209 9.7207C91.9209 8.38867 92.3434 7.35742 93.1885 6.62695C94.0407 5.89648 95.2438 5.53125 96.7979 5.53125C97.7718 5.53125 98.667 5.69238 99.4834 6.01465C100.307 6.32975 101.059 6.80957 101.739 7.4541L99.9668 9.40918C99.4154 8.9222 98.8783 8.55697 98.3555 8.31348C97.8398 8.06283 97.3242 7.9375 96.8086 7.9375C96.1354 7.9375 95.6126 8.09147 95.2402 8.39941C94.8678 8.7002 94.6816 9.14062 94.6816 9.7207C94.6816 10.1217 94.807 10.4762 95.0576 10.7842C95.3154 11.085 95.6842 11.3571 96.1641 11.6006L98.3018 12.6641C99.3975 13.2083 100.235 13.8385 100.815 14.5547C101.403 15.2637 101.696 16.0837 101.696 17.0146C101.696 18.3825 101.224 19.4245 100.278 20.1406C99.3402 20.8568 97.9652 21.2148 96.1533 21.2148ZM112.062 21V5.74609H114.619V21H112.062ZM104.521 21V5.74609H107.078V21H104.521ZM104.973 14.5977V12.2129H114.222V14.5977H104.973ZM117.541 21V18.2285C119.826 16.9967 121.53 15.7113 122.654 14.3721C123.786 13.0329 124.352 11.6543 124.352 10.2363C124.352 9.47005 124.162 8.89714 123.782 8.51758C123.41 8.13086 122.84 7.9375 122.074 7.9375C121.48 7.9375 120.857 8.10579 120.205 8.44238C119.553 8.77897 118.995 9.22656 118.529 9.78516L116.939 8.04492C117.455 7.28581 118.186 6.67708 119.131 6.21875C120.083 5.76042 121.079 5.53125 122.117 5.53125C123.764 5.53125 124.996 5.91439 125.812 6.68066C126.629 7.43978 127.037 8.58919 127.037 10.1289C127.037 11.6042 126.586 13.0186 125.684 14.3721C124.788 15.7184 123.424 17.0146 121.591 18.2607V21H117.541ZM118.186 21V18.6367H127.682V21H118.186ZM135.352 21.2148C131.814 21.2148 130.045 18.6367 130.045 13.4805C130.045 8.18099 131.814 5.53125 135.352 5.53125C138.889 5.53125 140.658 8.18099 140.658 13.4805C140.658 18.6367 138.889 21.2148 135.352 21.2148ZM135.341 15.3066C134.89 15.3066 134.524 15.1419 134.245 14.8125C133.973 14.4759 133.837 14.0319 133.837 13.4805C133.837 12.929 133.973 12.4886 134.245 12.1592C134.524 11.8226 134.89 11.6543 135.341 11.6543C135.792 11.6543 136.154 11.8226 136.426 12.1592C136.705 12.4886 136.845 12.929 136.845 13.4805C136.845 14.0319 136.705 14.4759 136.426 14.8125C136.154 15.1419 135.792 15.3066 135.341 15.3066ZM135.352 18.8838C137.106 18.8838 137.983 17.0827 137.983 13.4805C137.983 9.73503 137.106 7.8623 135.352 7.8623C133.583 7.8623 132.698 9.73503 132.698 13.4805C132.698 17.0827 133.583 18.8838 135.352 18.8838ZM155.697 23.041L164.141 3.70508H166.826L158.372 23.041H155.697ZM168.588 23.041L177.031 3.70508H179.717L171.263 23.041H168.588ZM199.278 21.2148C198.412 21.2148 197.581 21.1432 196.786 21C195.998 20.8568 195.282 20.6491 194.638 20.377L194.981 17.7666C195.769 18.1032 196.543 18.361 197.302 18.54C198.061 18.7119 198.777 18.7979 199.45 18.7979C200.31 18.7979 200.958 18.6475 201.395 18.3467C201.839 18.0387 202.061 17.5911 202.061 17.0039C202.061 16.2376 201.624 15.654 200.75 15.2529L198.376 14.125C197.309 13.6237 196.485 13.0042 195.905 12.2666C195.332 11.529 195.046 10.6803 195.046 9.7207C195.046 8.38867 195.468 7.35742 196.313 6.62695C197.166 5.89648 198.369 5.53125 199.923 5.53125C200.897 5.53125 201.792 5.69238 202.608 6.01465C203.432 6.32975 204.184 6.80957 204.864 7.4541L203.092 9.40918C202.54 8.9222 202.003 8.55697 201.48 8.31348C200.965 8.06283 200.449 7.9375 199.934 7.9375C199.26 7.9375 198.738 8.09147 198.365 8.39941C197.993 8.7002 197.807 9.14062 197.807 9.7207C197.807 10.1217 197.932 10.4762 198.183 10.7842C198.44 11.085 198.809 11.3571 199.289 11.6006L201.427 12.6641C202.522 13.2083 203.36 13.8385 203.94 14.5547C204.528 15.2637 204.821 16.0837 204.821 17.0146C204.821 18.3825 204.349 19.4245 203.403 20.1406C202.465 20.8568 201.09 21.2148 199.278 21.2148ZM207.861 21V5.74609H210.418V21H207.861ZM207.861 21V18.6152H218.174V21H207.861ZM207.861 14.5547V12.1699H216.24V14.5547H207.861ZM207.861 8.13086V5.74609H218.174V8.13086H207.861ZM220.752 21V5.74609H223.309V21H220.752ZM220.752 21V18.6152H231.064V21H220.752ZM220.752 14.5547V12.1699H229.131V14.5547H220.752ZM220.752 8.13086V5.74609H231.064V8.13086H220.752ZM250.25 16.2305L245.083 5.74609H247.93L251.271 13.0508H251.464L254.805 5.74609H257.651L252.484 16.2305H250.25ZM250.089 21V13.4805H252.646V21H250.089ZM258.188 21L262.593 5.74609H265.923L270.327 21H267.588L264.354 8.72168H264.161L260.928 21H258.188ZM260.337 17.7773V15.3926H268.071V17.7773H260.337ZM271.079 21L275.483 5.74609H278.813L283.218 21H280.479L277.245 8.72168H277.052L273.818 21H271.079ZM273.228 17.7773V15.3926H280.962V17.7773H273.228ZM301.662 15.457L301.49 5.63867H304.369L304.154 15.457H301.662ZM302.93 21.2148C302.428 21.2148 302.002 21.0394 301.651 20.6885C301.3 20.3304 301.125 19.9043 301.125 19.4102C301.125 18.9017 301.3 18.472 301.651 18.1211C302.002 17.7702 302.428 17.5947 302.93 17.5947C303.438 17.5947 303.864 17.7702 304.208 18.1211C304.559 18.472 304.734 18.9017 304.734 19.4102C304.734 19.9043 304.559 20.3304 304.208 20.6885C303.864 21.0394 303.438 21.2148 302.93 21.2148Z" fill="#94A3B8"/>
<path id="Vector_2" transform="translate(18 18)" d="M871 0H13C5.8203 0 0 5.8203 0 13V311C0 318.18 5.8203 324 13 324H871C878.18 324 884 318.18 884 311V13C884 5.8203 878.18 0 871 0Z" stroke="white" stroke-opacity="0.055"/>
<path id="Vector_3" transform="translate(42 42)" d="M6 12C9.31371 12 12 9.31371 12 6C12 2.68629 9.31371 0 6 0C2.68629 0 0 2.68629 0 6C0 9.31371 2.68629 12 6 12Z" fill="#FF5F57"/>
<path id="Vector_4" transform="translate(64 42)" d="M6 12C9.31371 12 12 9.31371 12 6C12 2.68629 9.31371 0 6 0C2.68629 0 0 2.68629 0 6C0 9.31371 2.68629 12 6 12Z" fill="#FEBC2E"/>
<path id="Vector_5" transform="translate(86 42)" d="M6 12C9.31371 12 12 9.31371 12 6C12 2.68629 9.31371 0 6 0C2.68629 0 0 2.68629 0 6C0 9.31371 2.68629 12 6 12Z" fill="#28C840"/>
<path id="__exit" transform="translate(124 31)" d="M1.54492 23.3066V19.6152L11.7988 16.4297V16.1836L1.54492 12.998V9.30664L15.5449 14.4746V18.1387L1.54492 23.3066ZM42.3008 26.2734C39.7943 26.2734 37.8574 25.6263 36.4902 24.332C35.123 23.0286 34.4395 21.1602 34.4395 18.7266C34.4395 16.3568 35.0182 14.5156 36.1758 13.2031C37.3424 11.8906 38.9831 11.2344 41.0977 11.2344C43.1667 11.2344 44.7663 11.8405 45.8965 13.0527C47.0267 14.265 47.5918 16.0286 47.5918 18.3438C47.5918 19 47.5645 19.6243 47.5098 20.2168H36.873V17.6465H43.9551C43.9551 16.6712 43.7044 15.9238 43.2031 15.4043C42.7109 14.8848 42.0182 14.625 41.125 14.625C40.1589 14.625 39.4069 14.9714 38.8691 15.6641C38.3405 16.3477 38.0762 17.3229 38.0762 18.5898C38.0762 19.957 38.4681 20.9961 39.252 21.707C40.0449 22.418 41.1706 22.7734 42.6289 22.7734C43.2852 22.7734 43.9323 22.7415 44.5703 22.6777C45.2083 22.6048 45.86 22.5091 46.5254 22.3906L46.8809 25.8906C45.9512 26.0547 45.1035 26.1595 44.3379 26.2051C43.5723 26.2507 42.8932 26.2734 42.3008 26.2734ZM50.3262 26L56.3281 17.9062L60.1016 11.5078H64.5176L58.2969 19.8477L54.7422 26H50.3262ZM60.1016 26L56.3828 19.8477L50.3262 11.5078H54.7422L58.5156 17.9062L64.5176 26H60.1016ZM72.9395 26V12.3281H76.6309V26H72.9395ZM67.5801 26V22.582H73.2129V26H67.5801ZM76.3574 26V22.582H80.9238V26H76.3574ZM68.4004 14.9258V11.5078H76.6309V14.9258H68.4004ZM74.6211 9.55273C73.9193 9.55273 73.3496 9.33398 72.9121 8.89648C72.4746 8.45898 72.2559 7.88932 72.2559 7.1875C72.2559 6.48568 72.4746 5.91602 72.9121 5.47852C73.3496 5.04102 73.9193 4.82227 74.6211 4.82227C75.3229 4.82227 75.8926 5.04102 76.3301 5.47852C76.7676 5.91602 76.9863 6.48568 76.9863 7.1875C76.9863 7.88932 76.7676 8.45898 76.3301 8.89648C75.8926 9.33398 75.3229 9.55273 74.6211 9.55273ZM93.3105 26.2734C90.8132 26.2734 89.0085 25.7721 87.8965 24.7695C86.7845 23.7669 86.2285 22.1628 86.2285 19.957V18.0703H89.9199V19.6016C89.9199 20.7044 90.2025 21.5065 90.7676 22.0078C91.3418 22.5091 92.2806 22.7598 93.584 22.7598C94.0033 22.7598 94.4499 22.737 94.9238 22.6914C95.4069 22.6367 95.9538 22.5684 96.5645 22.4863L96.8926 25.9453C96.291 26.0547 95.7031 26.1367 95.1289 26.1914C94.5638 26.2461 93.9577 26.2734 93.3105 26.2734ZM86.2285 18.9316V7.13281H89.9199V18.9316H86.2285ZM82.7559 14.9121V11.5078H96.3457V14.9121H82.7559Z" fill="#7EE787"/>
<path id="__c__user_karan_" transform="translate(42 189)" d="M7.85156 22L9.25781 5.35938H11.3203L9.91406 22H7.85156ZM1.17188 17.7812V15.7891H12.8906V17.7812H1.17188ZM2.74219 22L4.14844 5.35938H6.21094L4.80469 22H2.74219ZM1.17188 11.5703V9.57812H12.8906V11.5703H1.17188ZM36.3516 22.2344C34.2344 22.2344 32.5977 21.6797 31.4414 20.5703C30.293 19.4531 29.7188 17.8516 29.7188 15.7656C29.7188 13.7344 30.2617 12.1562 31.3477 11.0312C32.4414 9.90625 34 9.34375 36.0234 9.34375C37.2344 9.34375 38.2695 9.57031 39.1289 10.0234C39.9961 10.4688 40.6133 11.1016 40.9805 11.9219L39.0703 13.3633C38.7188 12.793 38.2695 12.3516 37.7227 12.0391C37.1758 11.7266 36.5781 11.5703 35.9297 11.5703C34.7578 11.5703 33.8477 11.9258 33.1992 12.6367C32.5508 13.3398 32.2266 14.3438 32.2266 15.6484C32.2266 17.0625 32.6055 18.1445 33.3633 18.8945C34.1289 19.6367 35.2188 20.0078 36.6328 20.0078C37.2109 20.0078 37.7891 19.9805 38.3672 19.9258C38.9453 19.8711 39.5078 19.7969 40.0547 19.7031L40.3359 21.8828C39.6953 22.0234 39.0312 22.1172 38.3438 22.1641C37.6641 22.2109 37 22.2344 36.3516 22.2344ZM49.2188 12.8125C48.7422 12.8125 48.332 12.6445 47.9883 12.3086C47.6523 11.9648 47.4844 11.5547 47.4844 11.0781C47.4844 10.5938 47.6523 10.1836 47.9883 9.84766C48.332 9.51172 48.7422 9.34375 49.2188 9.34375C49.7031 9.34375 50.1133 9.51172 50.4492 9.84766C50.7852 10.1836 50.9531 10.5938 50.9531 11.0781C50.9531 11.5547 50.7852 11.9648 50.4492 12.3086C50.1133 12.6445 49.7031 12.8125 49.2188 12.8125ZM49.2188 22.2344C48.7422 22.2344 48.332 22.0664 47.9883 21.7305C47.6523 21.3867 47.4844 20.9766 47.4844 20.5C47.4844 20.0156 47.6523 19.6055 47.9883 19.2695C48.332 18.9336 48.7422 18.7656 49.2188 18.7656C49.7031 18.7656 50.1133 18.9336 50.4492 19.2695C50.7852 19.6055 50.9531 20.0156 50.9531 20.5C50.9531 20.9766 50.7852 21.3867 50.4492 21.7305C50.1133 22.0664 49.7031 22.2344 49.2188 22.2344ZM66.4922 24.2266L57.0703 3.13281H59.5547L68.9766 24.2266H66.4922ZM76.125 22.2344C74.8203 22.2344 73.8086 21.8477 73.0898 21.0742C72.3789 20.293 72.0234 19.1953 72.0234 17.7812V9.57812H74.5078V17.7812C74.5078 18.4922 74.7109 19.043 75.1172 19.4336C75.5234 19.8164 76.0938 20.0078 76.8281 20.0078C77.7344 20.0078 78.418 19.7227 78.8789 19.1523C79.3398 18.5742 79.5703 17.6094 79.5703 16.2578L80.2031 19.6094H79.3828C79.1875 20.4531 78.8047 21.1016 78.2344 21.5547C77.6641 22.0078 76.9609 22.2344 76.125 22.2344ZM79.7812 22.1172L79.5703 19.1406V16.9609H82.0547V19.75L83.7656 20.0078V22L79.7812 22.1172ZM79.5703 18.4844V9.57812H82.0547V17.7812L79.5703 18.4844ZM90.4453 22.2344C89.5078 22.2344 88.7031 22.207 88.0312 22.1523C87.3672 22.0977 86.7578 22.0078 86.2031 21.8828L86.4844 19.6328C87.3047 19.7578 88.0273 19.8516 88.6523 19.9141C89.2852 19.9766 89.8828 20.0078 90.4453 20.0078C91.7031 20.0078 92.6133 19.8867 93.1758 19.6445C93.7461 19.3945 94.0312 19 94.0312 18.4609C94.0312 18.0859 93.9297 17.8086 93.7266 17.6289C93.5312 17.4414 93.2266 17.2969 92.8125 17.1953L89.9531 16.4688C88.7266 16.1562 87.8242 15.7695 87.2461 15.3086C86.6758 14.8477 86.3906 14.1484 86.3906 13.2109C86.3906 11.8516 86.9102 10.8672 87.9492 10.2578C88.9961 9.64844 90.6797 9.34375 93 9.34375C93.6016 9.34375 94.1602 9.36328 94.6758 9.40234C95.1992 9.43359 95.7344 9.49219 96.2812 9.57812L96.0234 11.7344C95.3906 11.6719 94.832 11.6289 94.3477 11.6055C93.8633 11.582 93.3906 11.5703 92.9297 11.5703C91.5391 11.5703 90.5312 11.6914 89.9062 11.9336C89.2812 12.168 88.9688 12.5547 88.9688 13.0938C88.9688 13.4531 89.0977 13.7148 89.3555 13.8789C89.6133 14.0352 90.0078 14.1797 90.5391 14.3125L92.8359 14.875C94.1406 15.1875 95.0938 15.6055 95.6953 16.1289C96.3047 16.6523 96.6094 17.4141 96.6094 18.4141C96.6094 19.75 96.1211 20.7227 95.1445 21.332C94.168 21.9336 92.6016 22.2344 90.4453 22.2344ZM106.664 22.2344C104.547 22.2344 102.91 21.6797 101.754 20.5703C100.605 19.4531 100.031 17.8516 100.031 15.7656C100.031 13.7344 100.52 12.1562 101.496 11.0312C102.473 9.90625 103.852 9.34375 105.633 9.34375C107.312 9.34375 108.609 9.85156 109.523 10.8672C110.445 11.8828 110.906 13.3594 110.906 15.2969C110.906 15.8672 110.883 16.3984 110.836 16.8906H102.117V14.9922H108.656C108.656 13.875 108.391 13.0195 107.859 12.4258C107.328 11.8242 106.594 11.5234 105.656 11.5234C104.602 11.5234 103.781 11.8828 103.195 12.6016C102.617 13.3203 102.328 14.3359 102.328 15.6484C102.328 17.0859 102.727 18.1797 103.523 18.9297C104.328 19.6797 105.469 20.0547 106.945 20.0547C107.461 20.0547 107.969 20.0273 108.469 19.9727C108.969 19.9102 109.477 19.8281 109.992 19.7266L110.297 21.9062C109.562 22.0469 108.891 22.1367 108.281 22.1758C107.672 22.2148 107.133 22.2344 106.664 22.2344ZM118.688 16.6562L117.961 12.7656H118.922C119.062 10.4844 120.203 9.34375 122.344 9.34375C123.625 9.34375 124.555 9.71094 125.133 10.4453C125.711 11.1797 126 12.3672 126 14.0078H123.539C123.539 13.1016 123.402 12.4492 123.129 12.0508C122.863 11.6523 122.43 11.4531 121.828 11.4531C120.773 11.4531 119.984 11.9062 119.461 12.8125C118.945 13.7109 118.688 14.9922 118.688 16.6562ZM113.438 22V19.9609H121.734V22H113.438ZM116.203 22V9.57812H118.219L118.688 13.1406V22H116.203ZM113.906 11.6172V9.57812H118.055L118.289 11.6172H113.906ZM136.805 24.2266L127.383 3.13281H129.867L139.289 24.2266H136.805ZM144.258 17.2891V15.0625H145.664C146.695 15.0625 147.543 14.8867 148.207 14.5352C148.871 14.1758 149.391 13.5938 149.766 12.7891C150.148 11.9844 150.43 10.9141 150.609 9.57812H153.188C152.859 12.1641 152.121 14.0977 150.973 15.3789C149.832 16.6523 148.258 17.2891 146.25 17.2891H144.258ZM142.5 22V4.42188H144.984V22H142.5ZM150.914 22L147.375 15.9531L149.719 14.9922L153.984 22H150.914ZM164.273 22.1172L164.109 18.4375L163.781 17.4062V14.1953C163.781 13.3672 163.488 12.7617 162.902 12.3789C162.324 11.9883 161.461 11.7773 160.312 11.7461L157.336 11.6641L157.57 9.46094L160.078 9.49609C162.133 9.52734 163.656 9.97266 164.648 10.832C165.648 11.6836 166.148 12.9297 166.148 14.5703V19.75L168.258 20.0078V22L164.273 22.1172ZM159.891 22.2344C158.594 22.2344 157.59 21.9219 156.879 21.2969C156.168 20.6719 155.812 19.7891 155.812 18.6484C155.812 17.3359 156.301 16.3281 157.277 15.625C158.262 14.9219 159.648 14.5703 161.438 14.5703C162.18 14.5703 162.84 14.6172 163.418 14.7109C164.004 14.7969 164.523 14.9297 164.977 15.1094L164.461 16.7969C163.938 16.6797 163.426 16.6133 162.926 16.5977C162.426 16.5742 161.914 16.5625 161.391 16.5625C159.234 16.5625 158.156 17.2188 158.156 18.5312C158.156 19.0781 158.34 19.5 158.707 19.7969C159.082 20.0938 159.609 20.2422 160.289 20.2422C161.062 20.2422 161.707 20.1094 162.223 19.8438C162.746 19.5781 163.137 19.2383 163.395 18.8242C163.652 18.4102 163.781 17.9844 163.781 17.5469V16.1875L164.508 19.375H163.523L163.922 19C163.922 19.7188 163.754 20.3203 163.418 20.8047C163.09 21.2812 162.625 21.6406 162.023 21.8828C161.422 22.1172 160.711 22.2344 159.891 22.2344ZM174.938 16.6562L174.211 12.7656H175.172C175.312 10.4844 176.453 9.34375 178.594 9.34375C179.875 9.34375 180.805 9.71094 181.383 10.4453C181.961 11.1797 182.25 12.3672 182.25 14.0078H179.789C179.789 13.1016 179.652 12.4492 179.379 12.0508C179.113 11.6523 178.68 11.4531 178.078 11.4531C177.023 11.4531 176.234 11.9062 175.711 12.8125C175.195 13.7109 174.938 14.9922 174.938 16.6562ZM169.688 22V19.9609H177.984V22H169.688ZM172.453 22V9.57812H174.469L174.938 13.1406V22H172.453ZM170.156 11.6172V9.57812H174.305L174.539 11.6172H170.156ZM192.398 22.1172L192.234 18.4375L191.906 17.4062V14.1953C191.906 13.3672 191.613 12.7617 191.027 12.3789C190.449 11.9883 189.586 11.7773 188.438 11.7461L185.461 11.6641L185.695 9.46094L188.203 9.49609C190.258 9.52734 191.781 9.97266 192.773 10.832C193.773 11.6836 194.273 12.9297 194.273 14.5703V19.75L196.383 20.0078V22L192.398 22.1172ZM188.016 22.2344C186.719 22.2344 185.715 21.9219 185.004 21.2969C184.293 20.6719 183.938 19.7891 183.938 18.6484C183.938 17.3359 184.426 16.3281 185.402 15.625C186.387 14.9219 187.773 14.5703 189.562 14.5703C190.305 14.5703 190.965 14.6172 191.543 14.7109C192.129 14.7969 192.648 14.9297 193.102 15.1094L192.586 16.7969C192.062 16.6797 191.551 16.6133 191.051 16.5977C190.551 16.5742 190.039 16.5625 189.516 16.5625C187.359 16.5625 186.281 17.2188 186.281 18.5312C186.281 19.0781 186.465 19.5 186.832 19.7969C187.207 20.0938 187.734 20.2422 188.414 20.2422C189.188 20.2422 189.832 20.1094 190.348 19.8438C190.871 19.5781 191.262 19.2383 191.52 18.8242C191.777 18.4102 191.906 17.9844 191.906 17.5469V16.1875L192.633 19.375H191.648L192.047 19C192.047 19.7188 191.879 20.3203 191.543 20.8047C191.215 21.2812 190.75 21.6406 190.148 21.8828C189.547 22.1172 188.836 22.2344 188.016 22.2344ZM206.484 22V13.9141C206.484 13.1641 206.289 12.5859 205.898 12.1797C205.508 11.7734 204.961 11.5703 204.258 11.5703C202.305 11.5703 201.328 12.7188 201.328 15.0156L200.602 11.8281H201.562C201.633 10.9922 201.938 10.3711 202.477 9.96484C203.016 9.55078 203.805 9.34375 204.844 9.34375C206.156 9.34375 207.172 9.74219 207.891 10.5391C208.609 11.3359 208.969 12.4609 208.969 13.9141V22H206.484ZM198.844 22V9.57812H201.094L201.328 12.2031V22H198.844ZM212.648 19.4922V16.9141L220.852 13.7969V13.5859L212.648 10.4688V7.89062L223.875 12.5078V14.875L212.648 19.4922Z" fill="#7EE787"/>
<g id="Group" opacity="0.1" transform="translate(-116)">
<g id="Vector_6" transform="translate(0 72)">
<path d="M0 0H1152H0ZM0 72H1152H0ZM0 144H1152H0ZM0 216H1152H0Z" id="Vector_6_bg_0" fill="black">
</path>
<path d="M0 0H1152M0 72H1152M0 144H1152M0 216H1152" stroke="#C4B5FD" stroke-width="0.72"/>
</g>
<g id="Vector_7" transform="translate(144)">
<path d="M0 0V360V0ZM144 0V360V0ZM288 0V360V0ZM432 0V360V0ZM576 0V360V0ZM720 0V360V0ZM864 0V360V0Z" id="Vector_7_bg_0" fill="black">
</path>
<path d="M0 0V360M144 0V360M288 0V360M432 0V360M576 0V360M720 0V360M864 0V360" stroke="#C4B5FD" stroke-width="0.72"/>
</g>
</g>
<path id="Session_terminated_successfully_" transform="translate(42 96)" d="M7.5332 26.2734C6.43034 26.2734 5.39583 26.1823 4.42969 26C3.47266 25.8268 2.58398 25.5625 1.76367 25.207L2.11914 22.4453C3.12174 22.8737 4.08789 23.2018 5.01758 23.4297C5.95638 23.6484 6.86784 23.7578 7.75195 23.7578C9.02799 23.7578 9.97591 23.5345 10.5957 23.0879C11.2155 22.6413 11.5254 21.9622 11.5254 21.0508C11.5254 19.8932 10.9329 19.0456 9.74805 18.5078L6.38477 16.9766C5.06315 16.375 4.04688 15.6504 3.33594 14.8027C2.63411 13.9551 2.2832 12.9023 2.2832 11.6445C2.2832 9.94922 2.79362 8.63672 3.81445 7.70703C4.83529 6.77734 6.27995 6.3125 8.14844 6.3125C9.45182 6.3125 10.6048 6.50391 11.6074 6.88672C12.61 7.26953 13.5762 7.89388 14.5059 8.75977L12.5918 10.7012C11.7897 10.0449 11.0378 9.57096 10.3359 9.2793C9.64323 8.97852 8.91862 8.82812 8.16211 8.82812C7.22331 8.82812 6.49414 9.05599 5.97461 9.51172C5.46419 9.95833 5.20898 10.6237 5.20898 11.5078C5.20898 12.1367 5.3776 12.6517 5.71484 13.0527C6.05208 13.4447 6.54883 13.7956 7.20508 14.1055L10.0488 15.4453C11.4889 16.1198 12.5827 16.8809 13.3301 17.7285C14.0775 18.5762 14.4512 19.6654 14.4512 20.9961C14.4512 22.7552 13.877 24.0768 12.7285 24.9609C11.5892 25.8359 9.85742 26.2734 7.5332 26.2734ZM26.0039 26.2734C23.5339 26.2734 21.6243 25.6263 20.2754 24.332C18.9355 23.0286 18.2656 21.1602 18.2656 18.7266C18.2656 16.3568 18.8353 14.5156 19.9746 13.2031C21.1139 11.8906 22.7227 11.2344 24.8008 11.2344C26.7604 11.2344 28.2734 11.8268 29.3398 13.0117C30.4154 14.1966 30.9531 15.9193 30.9531 18.1797C30.9531 18.8451 30.9258 19.4648 30.8711 20.0391H20.6992V17.8242H28.3281C28.3281 16.5208 28.0182 15.5228 27.3984 14.8301C26.7786 14.1283 25.9219 13.7773 24.8281 13.7773C23.5977 13.7773 22.6406 14.1966 21.957 15.0352C21.2826 15.8737 20.9453 17.0586 20.9453 18.5898C20.9453 20.2669 21.4102 21.543 22.3398 22.418C23.2786 23.293 24.6094 23.7305 26.332 23.7305C26.9336 23.7305 27.526 23.6986 28.1094 23.6348C28.6927 23.5618 29.2852 23.4661 29.8867 23.3477L30.2422 25.8906C29.3854 26.0547 28.6016 26.1595 27.8906 26.2051C27.1797 26.2507 26.5508 26.2734 26.0039 26.2734ZM39.8945 26.2734C38.8008 26.2734 37.862 26.2415 37.0781 26.1777C36.3034 26.1139 35.5924 26.0091 34.9453 25.8633L35.2734 23.2383C36.2305 23.3841 37.0736 23.4935 37.8027 23.5664C38.541 23.6393 39.2383 23.6758 39.8945 23.6758C41.362 23.6758 42.4238 23.5345 43.0801 23.252C43.7454 22.9603 44.0781 22.5 44.0781 21.8711C44.0781 21.4336 43.9596 21.11 43.7227 20.9004C43.4948 20.6816 43.1393 20.513 42.6562 20.3945L39.3203 19.5469C37.8893 19.1823 36.8366 18.7311 36.1621 18.1934C35.4967 17.6556 35.1641 16.8398 35.1641 15.7461C35.1641 14.1602 35.7702 13.0117 36.9824 12.3008C38.2038 11.5898 40.168 11.2344 42.875 11.2344C43.5768 11.2344 44.2285 11.2572 44.8301 11.3027C45.4408 11.3392 46.0651 11.4076 46.7031 11.5078L46.4023 14.0234C45.6641 13.9505 45.0124 13.9004 44.4473 13.873C43.8822 13.8457 43.3307 13.832 42.793 13.832C41.1706 13.832 39.9948 13.9733 39.2656 14.2559C38.5365 14.5293 38.1719 14.9805 38.1719 15.6094C38.1719 16.0286 38.3223 16.334 38.623 16.5254C38.9238 16.7077 39.3841 16.8763 40.0039 17.0312L42.6836 17.6875C44.2057 18.0521 45.3177 18.5397 46.0195 19.1504C46.7305 19.7611 47.0859 20.6497 47.0859 21.8164C47.0859 23.375 46.5163 24.5098 45.377 25.2207C44.2376 25.9225 42.4102 26.2734 39.8945 26.2734ZM56.3008 26.2734C55.207 26.2734 54.2682 26.2415 53.4844 26.1777C52.7096 26.1139 51.9987 26.0091 51.3516 25.8633L51.6797 23.2383C52.6367 23.3841 53.4798 23.4935 54.209 23.5664C54.9473 23.6393 55.6445 23.6758 56.3008 23.6758C57.7682 23.6758 58.8301 23.5345 59.4863 23.252C60.1517 22.9603 60.4844 22.5 60.4844 21.8711C60.4844 21.4336 60.3659 21.11 60.1289 20.9004C59.901 20.6816 59.5456 20.513 59.0625 20.3945L55.7266 19.5469C54.2956 19.1823 53.2428 18.7311 52.5684 18.1934C51.903 17.6556 51.5703 16.8398 51.5703 15.7461C51.5703 14.1602 52.1764 13.0117 53.3887 12.3008C54.61 11.5898 56.5742 11.2344 59.2812 11.2344C59.9831 11.2344 60.6348 11.2572 61.2363 11.3027C61.847 11.3392 62.4714 11.4076 63.1094 11.5078L62.8086 14.0234C62.0703 13.9505 61.4186 13.9004 60.8535 13.873C60.2884 13.8457 59.737 13.832 59.1992 13.832C57.5768 13.832 56.401 13.9733 55.6719 14.2559C54.9427 14.5293 54.5781 14.9805 54.5781 15.6094C54.5781 16.0286 54.7285 16.334 55.0293 16.5254C55.3301 16.7077 55.7904 16.8763 56.4102 17.0312L59.0898 17.6875C60.612 18.0521 61.724 18.5397 62.4258 19.1504C63.1367 19.7611 63.4922 20.6497 63.4922 21.8164C63.4922 23.375 62.9225 24.5098 61.7832 25.2207C60.6439 25.9225 58.8164 26.2734 56.3008 26.2734ZM73.3359 26V12.3281H76.2344V26H73.3359ZM67.8125 26V23.6211H73.6094V26H67.8125ZM75.9609 26V23.6211H80.6914V26H75.9609ZM68.6328 13.8867V11.5078H76.2344V13.8867H68.6328ZM74.6895 9.21094C74.1335 9.21094 73.6549 9.01497 73.2539 8.62305C72.862 8.22201 72.666 7.74349 72.666 7.1875C72.666 6.6224 72.862 6.14388 73.2539 5.75195C73.6549 5.36003 74.1335 5.16406 74.6895 5.16406C75.2546 5.16406 75.7331 5.36003 76.125 5.75195C76.5169 6.14388 76.7129 6.6224 76.7129 7.1875C76.7129 7.74349 76.5169 8.22201 76.125 8.62305C75.7331 9.01497 75.2546 9.21094 74.6895 9.21094ZM90.2344 26.2734C88.2292 26.2734 86.6706 25.6172 85.5586 24.3047C84.4466 22.9922 83.8906 21.1419 83.8906 18.7539C83.8906 16.3568 84.4466 14.5065 85.5586 13.2031C86.6706 11.8906 88.2292 11.2344 90.2344 11.2344C92.2487 11.2344 93.8073 11.8906 94.9102 13.2031C96.0221 14.5065 96.5781 16.3568 96.5781 18.7539C96.5781 21.1419 96.0221 22.9922 94.9102 24.3047C93.8073 25.6172 92.2487 26.2734 90.2344 26.2734ZM90.2344 23.6758C91.3008 23.6758 92.1211 23.2474 92.6953 22.3906C93.2786 21.5339 93.5703 20.3216 93.5703 18.7539C93.5703 17.1771 93.2786 15.9648 92.6953 15.1172C92.1211 14.2604 91.3008 13.832 90.2344 13.832C89.168 13.832 88.3431 14.2604 87.7598 15.1172C87.1855 15.9648 86.8984 17.1771 86.8984 18.7539C86.8984 20.3216 87.1855 21.5339 87.7598 22.3906C88.3431 23.2474 89.168 23.6758 90.2344 23.6758ZM109.648 26V16.5664C109.648 15.6914 109.421 15.0169 108.965 14.543C108.509 14.069 107.871 13.832 107.051 13.832C104.772 13.832 103.633 15.1719 103.633 17.8516L102.785 14.1328H103.906C103.988 13.1576 104.344 12.4329 104.973 11.959C105.602 11.4759 106.522 11.2344 107.734 11.2344C109.266 11.2344 110.451 11.6992 111.289 12.6289C112.128 13.5586 112.547 14.8711 112.547 16.5664V26H109.648ZM100.734 26V11.5078H103.359L103.633 14.5703V26H100.734ZM142.078 26.2734C139.882 26.2734 138.291 25.8177 137.307 24.9062C136.331 23.9948 135.844 22.5365 135.844 20.5312V18.0703H138.742V20.3945C138.742 21.543 139.02 22.377 139.576 22.8965C140.141 23.416 141.066 23.6758 142.352 23.6758C142.807 23.6758 143.29 23.653 143.801 23.6074C144.311 23.5527 144.895 23.4844 145.551 23.4023L145.879 25.9453C145.241 26.0547 144.617 26.1367 144.006 26.1914C143.404 26.2461 142.762 26.2734 142.078 26.2734ZM135.844 19.1641V7.13281H138.742V19.1641H135.844ZM132.207 13.8867V11.5078H145.332V13.8867H132.207ZM157.254 26.2734C154.784 26.2734 152.874 25.6263 151.525 24.332C150.186 23.0286 149.516 21.1602 149.516 18.7266C149.516 16.3568 150.085 14.5156 151.225 13.2031C152.364 11.8906 153.973 11.2344 156.051 11.2344C158.01 11.2344 159.523 11.8268 160.59 13.0117C161.665 14.1966 162.203 15.9193 162.203 18.1797C162.203 18.8451 162.176 19.4648 162.121 20.0391H151.949V17.8242H159.578C159.578 16.5208 159.268 15.5228 158.648 14.8301C158.029 14.1283 157.172 13.7773 156.078 13.7773C154.848 13.7773 153.891 14.1966 153.207 15.0352C152.533 15.8737 152.195 17.0586 152.195 18.5898C152.195 20.2669 152.66 21.543 153.59 22.418C154.529 23.293 155.859 23.7305 157.582 23.7305C158.184 23.7305 158.776 23.6986 159.359 23.6348C159.943 23.5618 160.535 23.4661 161.137 23.3477L161.492 25.8906C160.635 26.0547 159.852 26.1595 159.141 26.2051C158.43 26.2507 157.801 26.2734 157.254 26.2734ZM171.281 19.7656L170.434 15.2266H171.555C171.719 12.5651 173.049 11.2344 175.547 11.2344C177.042 11.2344 178.126 11.6628 178.801 12.5195C179.475 13.3763 179.812 14.7617 179.812 16.6758H176.941C176.941 15.6185 176.782 14.8574 176.463 14.3926C176.153 13.9277 175.647 13.6953 174.945 13.6953C173.715 13.6953 172.794 14.224 172.184 15.2812C171.582 16.3294 171.281 17.8242 171.281 19.7656ZM165.156 26V23.6211H174.836V26H165.156ZM168.383 26V11.5078H170.734L171.281 15.6641V26H168.383ZM165.703 13.8867V11.5078H170.543L170.816 13.8867H165.703ZM192.445 26V14.9258C192.445 13.9232 192.072 13.4219 191.324 13.4219C190.376 13.4219 189.902 14.0781 189.902 15.3906L188.918 13.3125H190.039C190.085 12.7474 190.308 12.2598 190.709 11.8496C191.119 11.4395 191.707 11.2344 192.473 11.2344C193.475 11.2344 194.204 11.5033 194.66 12.041C195.116 12.5788 195.344 13.4492 195.344 14.6523V26H192.445ZM182 26V11.5078H184.57L184.898 14.5703V26H182ZM187.441 26V14.6523C187.441 13.832 187.059 13.4219 186.293 13.4219C185.363 13.4219 184.898 14.0781 184.898 15.3906L184.051 13.3125H184.98C185.09 11.9271 185.919 11.2344 187.469 11.2344C188.225 11.2344 188.818 11.4941 189.246 12.0137C189.684 12.5332 189.902 13.3216 189.902 14.3789V26H187.441ZM204.586 26V12.3281H207.484V26H204.586ZM199.062 26V23.6211H204.859V26H199.062ZM207.211 26V23.6211H211.941V26H207.211ZM199.883 13.8867V11.5078H207.484V13.8867H199.883ZM205.939 9.21094C205.383 9.21094 204.905 9.01497 204.504 8.62305C204.112 8.22201 203.916 7.74349 203.916 7.1875C203.916 6.6224 204.112 6.14388 204.504 5.75195C204.905 5.36003 205.383 5.16406 205.939 5.16406C206.505 5.16406 206.983 5.36003 207.375 5.75195C207.767 6.14388 207.963 6.6224 207.963 7.1875C207.963 7.74349 207.767 8.22201 207.375 8.62305C206.983 9.01497 206.505 9.21094 205.939 9.21094ZM224.492 26V16.5664C224.492 15.6914 224.264 15.0169 223.809 14.543C223.353 14.069 222.715 13.832 221.895 13.832C219.616 13.832 218.477 15.1719 218.477 17.8516L217.629 14.1328H218.75C218.832 13.1576 219.188 12.4329 219.816 11.959C220.445 11.4759 221.366 11.2344 222.578 11.2344C224.109 11.2344 225.294 11.6992 226.133 12.6289C226.971 13.5586 227.391 14.8711 227.391 16.5664V26H224.492ZM215.578 26V11.5078H218.203L218.477 14.5703V26H215.578ZM240.871 26.1367L240.68 21.8438L240.297 20.6406V16.8945C240.297 15.9284 239.955 15.222 239.271 14.7754C238.597 14.3197 237.59 14.0736 236.25 14.0371L232.777 13.9414L233.051 11.3711L235.977 11.4121C238.374 11.4486 240.151 11.9681 241.309 12.9707C242.475 13.9642 243.059 15.418 243.059 17.332V23.375L245.52 23.6758V26L240.871 26.1367ZM235.758 26.2734C234.245 26.2734 233.074 25.9089 232.244 25.1797C231.415 24.4505 231 23.4206 231 22.0898C231 20.5586 231.57 19.3828 232.709 18.5625C233.857 17.7422 235.475 17.332 237.562 17.332C238.428 17.332 239.199 17.3867 239.873 17.4961C240.557 17.5964 241.163 17.7513 241.691 17.9609L241.09 19.9297C240.479 19.793 239.882 19.7155 239.299 19.6973C238.715 19.6699 238.118 19.6562 237.508 19.6562C234.992 19.6562 233.734 20.4219 233.734 21.9531C233.734 22.5911 233.949 23.0833 234.377 23.4297C234.814 23.776 235.43 23.9492 236.223 23.9492C237.125 23.9492 237.877 23.7943 238.479 23.4844C239.089 23.1745 239.545 22.778 239.846 22.2949C240.146 21.8118 240.297 21.3151 240.297 20.8047V19.2188L241.145 22.9375H239.996L240.461 22.5C240.461 23.3385 240.265 24.0404 239.873 24.6055C239.49 25.1615 238.948 25.5807 238.246 25.8633C237.544 26.1367 236.715 26.2734 235.758 26.2734ZM256.922 26.2734C254.725 26.2734 253.135 25.8177 252.15 24.9062C251.175 23.9948 250.688 22.5365 250.688 20.5312V18.0703H253.586V20.3945C253.586 21.543 253.864 22.377 254.42 22.8965C254.985 23.416 255.91 23.6758 257.195 23.6758C257.651 23.6758 258.134 23.653 258.645 23.6074C259.155 23.5527 259.738 23.4844 260.395 23.4023L260.723 25.9453C260.085 26.0547 259.46 26.1367 258.85 26.1914C258.248 26.2461 257.605 26.2734 256.922 26.2734ZM250.688 19.1641V7.13281H253.586V19.1641H250.688ZM247.051 13.8867V11.5078H260.176V13.8867H247.051ZM272.098 26.2734C269.628 26.2734 267.718 25.6263 266.369 24.332C265.029 23.0286 264.359 21.1602 264.359 18.7266C264.359 16.3568 264.929 14.5156 266.068 13.2031C267.208 11.8906 268.816 11.2344 270.895 11.2344C272.854 11.2344 274.367 11.8268 275.434 13.0117C276.509 14.1966 277.047 15.9193 277.047 18.1797C277.047 18.8451 277.02 19.4648 276.965 20.0391H266.793V17.8242H274.422C274.422 16.5208 274.112 15.5228 273.492 14.8301C272.872 14.1283 272.016 13.7773 270.922 13.7773C269.691 13.7773 268.734 14.1966 268.051 15.0352C267.376 15.8737 267.039 17.0586 267.039 18.5898C267.039 20.2669 267.504 21.543 268.434 22.418C269.372 23.293 270.703 23.7305 272.426 23.7305C273.027 23.7305 273.62 23.6986 274.203 23.6348C274.786 23.5618 275.379 23.4661 275.98 23.3477L276.336 25.8906C275.479 26.0547 274.695 26.1595 273.984 26.2051C273.273 26.2507 272.645 26.2734 272.098 26.2734ZM286.002 26.2734C284.106 26.2734 282.666 25.6491 281.682 24.4004C280.706 23.1517 280.219 21.3151 280.219 18.8906C280.219 16.375 280.706 14.4701 281.682 13.1758C282.666 11.8815 284.106 11.2344 286.002 11.2344C287.087 11.2344 287.966 11.4896 288.641 12C289.324 12.5104 289.725 13.2214 289.844 14.1328H290.965L290.117 18.2617C290.117 16.7669 289.821 15.6322 289.229 14.8574C288.645 14.0827 287.784 13.6953 286.645 13.6953C285.478 13.6953 284.594 14.1328 283.992 15.0078C283.391 15.8828 283.09 17.1771 283.09 18.8906C283.09 20.513 283.391 21.7389 283.992 22.5684C284.594 23.3978 285.478 23.8125 286.645 23.8125C287.784 23.8125 288.645 23.4251 289.229 22.6504C289.821 21.8757 290.117 20.7409 290.117 19.2461L291.102 23.375H289.844C289.753 24.2865 289.365 24.9974 288.682 25.5078C288.007 26.0182 287.114 26.2734 286.002 26.2734ZM290.418 26.1367L290.117 23.293V5.49219H293.016V26L290.418 26.1367ZM318.801 26.2734C317.707 26.2734 316.768 26.2415 315.984 26.1777C315.21 26.1139 314.499 26.0091 313.852 25.8633L314.18 23.2383C315.137 23.3841 315.98 23.4935 316.709 23.5664C317.447 23.6393 318.145 23.6758 318.801 23.6758C320.268 23.6758 321.33 23.5345 321.986 23.252C322.652 22.9603 322.984 22.5 322.984 21.8711C322.984 21.4336 322.866 21.11 322.629 20.9004C322.401 20.6816 322.046 20.513 321.562 20.3945L318.227 19.5469C316.796 19.1823 315.743 18.7311 315.068 18.1934C314.403 17.6556 314.07 16.8398 314.07 15.7461C314.07 14.1602 314.676 13.0117 315.889 12.3008C317.11 11.5898 319.074 11.2344 321.781 11.2344C322.483 11.2344 323.135 11.2572 323.736 11.3027C324.347 11.3392 324.971 11.4076 325.609 11.5078L325.309 14.0234C324.57 13.9505 323.919 13.9004 323.354 13.873C322.788 13.8457 322.237 13.832 321.699 13.832C320.077 13.832 318.901 13.9733 318.172 14.2559C317.443 14.5293 317.078 14.9805 317.078 15.6094C317.078 16.0286 317.229 16.334 317.529 16.5254C317.83 16.7077 318.29 16.8763 318.91 17.0312L321.59 17.6875C323.112 18.0521 324.224 18.5397 324.926 19.1504C325.637 19.7611 325.992 20.6497 325.992 21.8164C325.992 23.375 325.423 24.5098 324.283 25.2207C323.144 25.9225 321.316 26.2734 318.801 26.2734ZM334.906 26.2734C333.384 26.2734 332.204 25.8223 331.365 24.9199C330.536 24.0085 330.121 22.7279 330.121 21.0781V11.5078H333.02V21.0781C333.02 21.9076 333.257 22.5501 333.73 23.0059C334.204 23.4525 334.87 23.6758 335.727 23.6758C336.784 23.6758 337.581 23.3431 338.119 22.6777C338.657 22.0033 338.926 20.8776 338.926 19.3008L339.664 23.2109H338.707C338.479 24.1953 338.033 24.9518 337.367 25.4805C336.702 26.0091 335.882 26.2734 334.906 26.2734ZM339.172 26.1367L338.926 22.6641V20.1211H341.824V23.375L343.82 23.6758V26L339.172 26.1367ZM338.926 21.8984V11.5078H341.824V21.0781L338.926 21.8984ZM354.129 26.2734C351.659 26.2734 349.749 25.6263 348.4 24.332C347.061 23.0286 346.391 21.1602 346.391 18.7266C346.391 16.3568 347.024 14.5156 348.291 13.2031C349.567 11.8906 351.385 11.2344 353.746 11.2344C355.159 11.2344 356.367 11.4987 357.369 12.0273C358.381 12.5469 359.101 13.2852 359.529 14.2422L357.301 15.9238C356.891 15.2585 356.367 14.7435 355.729 14.3789C355.09 14.0143 354.393 13.832 353.637 13.832C352.27 13.832 351.208 14.2467 350.451 15.0762C349.695 15.8965 349.316 17.0677 349.316 18.5898C349.316 20.2396 349.758 21.502 350.643 22.377C351.536 23.2428 352.807 23.6758 354.457 23.6758C355.132 23.6758 355.806 23.6439 356.48 23.5801C357.155 23.5163 357.811 23.4297 358.449 23.3203L358.777 25.8633C358.03 26.0273 357.255 26.1367 356.453 26.1914C355.66 26.2461 354.885 26.2734 354.129 26.2734ZM370.535 26.2734C368.065 26.2734 366.156 25.6263 364.807 24.332C363.467 23.0286 362.797 21.1602 362.797 18.7266C362.797 16.3568 363.43 14.5156 364.697 13.2031C365.973 11.8906 367.792 11.2344 370.152 11.2344C371.565 11.2344 372.773 11.4987 373.775 12.0273C374.787 12.5469 375.507 13.2852 375.936 14.2422L373.707 15.9238C373.297 15.2585 372.773 14.7435 372.135 14.3789C371.497 14.0143 370.799 13.832 370.043 13.832C368.676 13.832 367.614 14.2467 366.857 15.0762C366.101 15.8965 365.723 17.0677 365.723 18.5898C365.723 20.2396 366.165 21.502 367.049 22.377C367.942 23.2428 369.214 23.6758 370.863 23.6758C371.538 23.6758 372.212 23.6439 372.887 23.5801C373.561 23.5163 374.217 23.4297 374.855 23.3203L375.184 25.8633C374.436 26.0273 373.661 26.1367 372.859 26.1914C372.066 26.2461 371.292 26.2734 370.535 26.2734ZM386.941 26.2734C384.471 26.2734 382.562 25.6263 381.213 24.332C379.873 23.0286 379.203 21.1602 379.203 18.7266C379.203 16.3568 379.773 14.5156 380.912 13.2031C382.051 11.8906 383.66 11.2344 385.738 11.2344C387.698 11.2344 389.211 11.8268 390.277 13.0117C391.353 14.1966 391.891 15.9193 391.891 18.1797C391.891 18.8451 391.863 19.4648 391.809 20.0391H381.637V17.8242H389.266C389.266 16.5208 388.956 15.5228 388.336 14.8301C387.716 14.1283 386.859 13.7773 385.766 13.7773C384.535 13.7773 383.578 14.1966 382.895 15.0352C382.22 15.8737 381.883 17.0586 381.883 18.5898C381.883 20.2669 382.348 21.543 383.277 22.418C384.216 23.293 385.547 23.7305 387.27 23.7305C387.871 23.7305 388.464 23.6986 389.047 23.6348C389.63 23.5618 390.223 23.4661 390.824 23.3477L391.18 25.8906C390.323 26.0547 389.539 26.1595 388.828 26.2051C388.117 26.2507 387.488 26.2734 386.941 26.2734ZM400.832 26.2734C399.738 26.2734 398.799 26.2415 398.016 26.1777C397.241 26.1139 396.53 26.0091 395.883 25.8633L396.211 23.2383C397.168 23.3841 398.011 23.4935 398.74 23.5664C399.479 23.6393 400.176 23.6758 400.832 23.6758C402.299 23.6758 403.361 23.5345 404.018 23.252C404.683 22.9603 405.016 22.5 405.016 21.8711C405.016 21.4336 404.897 21.11 404.66 20.9004C404.432 20.6816 404.077 20.513 403.594 20.3945L400.258 19.5469C398.827 19.1823 397.774 18.7311 397.1 18.1934C396.434 17.6556 396.102 16.8398 396.102 15.7461C396.102 14.1602 396.708 13.0117 397.92 12.3008C399.141 11.5898 401.105 11.2344 403.812 11.2344C404.514 11.2344 405.166 11.2572 405.768 11.3027C406.378 11.3392 407.003 11.4076 407.641 11.5078L407.34 14.0234C406.602 13.9505 405.95 13.9004 405.385 13.873C404.82 13.8457 404.268 13.832 403.73 13.832C402.108 13.832 400.932 13.9733 400.203 14.2559C399.474 14.5293 399.109 14.9805 399.109 15.6094C399.109 16.0286 399.26 16.334 399.561 16.5254C399.861 16.7077 400.322 16.8763 400.941 17.0312L403.621 17.6875C405.143 18.0521 406.255 18.5397 406.957 19.1504C407.668 19.7611 408.023 20.6497 408.023 21.8164C408.023 23.375 407.454 24.5098 406.314 25.2207C405.175 25.9225 403.348 26.2734 400.832 26.2734ZM417.238 26.2734C416.145 26.2734 415.206 26.2415 414.422 26.1777C413.647 26.1139 412.936 26.0091 412.289 25.8633L412.617 23.2383C413.574 23.3841 414.417 23.4935 415.146 23.5664C415.885 23.6393 416.582 23.6758 417.238 23.6758C418.706 23.6758 419.768 23.5345 420.424 23.252C421.089 22.9603 421.422 22.5 421.422 21.8711C421.422 21.4336 421.303 21.11 421.066 20.9004C420.839 20.6816 420.483 20.513 420 20.3945L416.664 19.5469C415.233 19.1823 414.18 18.7311 413.506 18.1934C412.84 17.6556 412.508 16.8398 412.508 15.7461C412.508 14.1602 413.114 13.0117 414.326 12.3008C415.548 11.5898 417.512 11.2344 420.219 11.2344C420.921 11.2344 421.572 11.2572 422.174 11.3027C422.785 11.3392 423.409 11.4076 424.047 11.5078L423.746 14.0234C423.008 13.9505 422.356 13.9004 421.791 13.873C421.226 13.8457 420.674 13.832 420.137 13.832C418.514 13.832 417.339 13.9733 416.609 14.2559C415.88 14.5293 415.516 14.9805 415.516 15.6094C415.516 16.0286 415.666 16.334 415.967 16.5254C416.268 16.7077 416.728 16.8763 417.348 17.0312L420.027 17.6875C421.549 18.0521 422.661 18.5397 423.363 19.1504C424.074 19.7611 424.43 20.6497 424.43 21.8164C424.43 23.375 423.86 24.5098 422.721 25.2207C421.581 25.9225 419.754 26.2734 417.238 26.2734ZM432.059 26V12.7383C432.059 7.72526 434.346 5.21875 438.922 5.21875C439.961 5.21875 440.964 5.3099 441.93 5.49219L441.629 8.00781C441.055 7.9349 440.549 7.88477 440.111 7.85742C439.674 7.83008 439.25 7.81641 438.84 7.81641C436.251 7.81641 434.957 9.41146 434.957 12.6016V26H432.059ZM427.492 17.168V14.7891H440.891V17.168H427.492ZM449.75 26.2734C448.228 26.2734 447.048 25.8223 446.209 24.9199C445.38 24.0085 444.965 22.7279 444.965 21.0781V11.5078H447.863V21.0781C447.863 21.9076 448.1 22.5501 448.574 23.0059C449.048 23.4525 449.714 23.6758 450.57 23.6758C451.628 23.6758 452.425 23.3431 452.963 22.6777C453.501 22.0033 453.77 20.8776 453.77 19.3008L454.508 23.2109H453.551C453.323 24.1953 452.876 24.9518 452.211 25.4805C451.546 26.0091 450.725 26.2734 449.75 26.2734ZM454.016 26.1367L453.77 22.6641V20.1211H456.668V23.375L458.664 23.6758V26L454.016 26.1367ZM453.77 21.8984V11.5078H456.668V21.0781L453.77 21.8984ZM469.738 26.2734C468.061 26.2734 466.849 25.8177 466.102 24.9062C465.354 23.9948 464.98 22.5365 464.98 20.5312V5.49219H467.879V20.3945C467.879 21.1602 467.952 21.7845 468.098 22.2676C468.243 22.7507 468.526 23.1061 468.945 23.334C469.374 23.5618 470.003 23.6758 470.832 23.6758C471.589 23.6758 472.555 23.5026 473.73 23.1562L474.059 25.6992C473.32 25.8997 472.609 26.0456 471.926 26.1367C471.251 26.2279 470.522 26.2734 469.738 26.2734ZM460.715 7.87109V5.49219H465.227V7.87109H460.715ZM486.145 26.2734C484.467 26.2734 483.255 25.8177 482.508 24.9062C481.76 23.9948 481.387 22.5365 481.387 20.5312V5.49219H484.285V20.3945C484.285 21.1602 484.358 21.7845 484.504 22.2676C484.65 22.7507 484.932 23.1061 485.352 23.334C485.78 23.5618 486.409 23.6758 487.238 23.6758C487.995 23.6758 488.961 23.5026 490.137 23.1562L490.465 25.6992C489.727 25.8997 489.016 26.0456 488.332 26.1367C487.658 26.2279 486.928 26.2734 486.145 26.2734ZM477.121 7.87109V5.49219H481.633V7.87109H477.121ZM493.213 32.5625L493.076 29.9648L495.346 29.6914C496.303 29.5729 497.118 29.3132 497.793 28.9121C498.477 28.5111 499.06 27.9141 499.543 27.1211C500.026 26.3372 500.45 25.3073 500.814 24.0312L504.424 11.5078H507.432L503.248 24.7148C502.701 26.4466 502.086 27.8411 501.402 28.8984C500.728 29.9557 499.926 30.7487 498.996 31.2773C498.076 31.806 496.968 32.1432 495.674 32.2891L493.213 32.5625ZM498.709 26L492.939 11.5078H495.947L500.678 23.8125H501.115V26H498.709ZM516.797 26.2734C516.241 26.2734 515.762 26.0775 515.361 25.6855C514.969 25.2845 514.773 24.806 514.773 24.25C514.773 23.6849 514.969 23.2064 515.361 22.8145C515.762 22.4225 516.241 22.2266 516.797 22.2266C517.362 22.2266 517.84 22.4225 518.232 22.8145C518.624 23.2064 518.82 23.6849 518.82 24.25C518.82 24.806 518.624 25.2845 518.232 25.6855C517.84 26.0775 517.362 26.2734 516.797 26.2734Z" fill="#E5E7EB"/>
<path id="see_you_in_the_next_commit_" transform="translate(42 141)" d="M5.56445 21.2148C4.70508 21.2148 3.96745 21.1898 3.35156 21.1396C2.74284 21.0895 2.18424 21.0072 1.67578 20.8926L1.93359 18.8301C2.68555 18.9447 3.34798 19.0306 3.9209 19.0879C4.50098 19.1452 5.04883 19.1738 5.56445 19.1738C6.71745 19.1738 7.55176 19.0628 8.06738 18.8408C8.59017 18.6117 8.85156 18.25 8.85156 17.7559C8.85156 17.4121 8.75846 17.1579 8.57227 16.9932C8.39323 16.8213 8.11393 16.6888 7.73438 16.5957L5.11328 15.9297C3.98893 15.6432 3.16178 15.2887 2.63184 14.8662C2.10905 14.4437 1.84766 13.8027 1.84766 12.9434C1.84766 11.6973 2.32389 10.7949 3.27637 10.2363C4.236 9.67773 5.7793 9.39844 7.90625 9.39844C8.45768 9.39844 8.96973 9.41634 9.44238 9.45215C9.9222 9.48079 10.4128 9.53451 10.9141 9.61328L10.6777 11.5898C10.0977 11.5326 9.58561 11.4932 9.1416 11.4717C8.69759 11.4502 8.26432 11.4395 7.8418 11.4395C6.56706 11.4395 5.64323 11.5505 5.07031 11.7725C4.4974 11.9873 4.21094 12.3418 4.21094 12.8359C4.21094 13.1654 4.3291 13.4053 4.56543 13.5557C4.80176 13.6989 5.16341 13.8314 5.65039 13.9531L7.75586 14.4688C8.95182 14.7552 9.82552 15.1383 10.377 15.6182C10.9355 16.098 11.2148 16.7962 11.2148 17.7129C11.2148 18.9375 10.7673 19.8291 9.87207 20.3877C8.97689 20.9391 7.54102 21.2148 5.56445 21.2148ZM20.4316 21.2148C18.4909 21.2148 16.9906 20.7064 15.9307 19.6895C14.8779 18.6654 14.3516 17.1973 14.3516 15.2852C14.3516 13.4232 14.7992 11.9766 15.6943 10.9453C16.5895 9.91406 17.8535 9.39844 19.4863 9.39844C21.026 9.39844 22.2148 9.86393 23.0527 10.7949C23.8978 11.7259 24.3203 13.0794 24.3203 14.8555C24.3203 15.3783 24.2988 15.8652 24.2559 16.3164H16.2637V14.5762H22.2578C22.2578 13.5521 22.0143 12.7679 21.5273 12.2236C21.0404 11.6722 20.3672 11.3965 19.5078 11.3965C18.541 11.3965 17.7891 11.7259 17.252 12.3848C16.722 13.0436 16.457 13.9746 16.457 15.1777C16.457 16.4954 16.8223 17.498 17.5527 18.1855C18.2904 18.873 19.3359 19.2168 20.6895 19.2168C21.1621 19.2168 21.6276 19.1917 22.0859 19.1416C22.5443 19.0843 23.0098 19.0091 23.4824 18.916L23.7617 20.9141C23.0885 21.043 22.4727 21.1253 21.9141 21.1611C21.3555 21.1969 20.8613 21.2148 20.4316 21.2148ZM33.3223 21.2148C31.3815 21.2148 29.8812 20.7064 28.8213 19.6895C27.7686 18.6654 27.2422 17.1973 27.2422 15.2852C27.2422 13.4232 27.6898 11.9766 28.585 10.9453C29.4801 9.91406 30.7441 9.39844 32.377 9.39844C33.9167 9.39844 35.1055 9.86393 35.9434 10.7949C36.7884 11.7259 37.2109 13.0794 37.2109 14.8555C37.2109 15.3783 37.1895 15.8652 37.1465 16.3164H29.1543V14.5762H35.1484C35.1484 13.5521 34.9049 12.7679 34.418 12.2236C33.931 11.6722 33.2578 11.3965 32.3984 11.3965C31.4316 11.3965 30.6797 11.7259 30.1426 12.3848C29.6126 13.0436 29.3477 13.9746 29.3477 15.1777C29.3477 16.4954 29.7129 17.498 30.4434 18.1855C31.181 18.873 32.2266 19.2168 33.5801 19.2168C34.0527 19.2168 34.5182 19.1917 34.9766 19.1416C35.4349 19.0843 35.9004 19.0091 36.373 18.916L36.6523 20.9141C35.9792 21.043 35.3633 21.1253 34.8047 21.1611C34.2461 21.1969 33.752 21.2148 33.3223 21.2148ZM52.3682 26.1562L52.2607 24.1152L54.0439 23.9004C54.7959 23.8073 55.4368 23.6032 55.9668 23.2881C56.5039 22.973 56.9622 22.5039 57.3418 21.8809C57.7214 21.265 58.0544 20.4557 58.3408 19.4531L61.1768 9.61328H63.54L60.2529 19.9902C59.8232 21.3509 59.3398 22.4466 58.8027 23.2773C58.2728 24.1081 57.6426 24.7311 56.9121 25.1465C56.1888 25.5618 55.3187 25.8268 54.3018 25.9414L52.3682 26.1562ZM56.6865 21L52.1533 9.61328H54.5166L58.2334 19.2812H58.5771V21H56.6865ZM70.8984 21.2148C69.3229 21.2148 68.0983 20.6992 67.2246 19.668C66.3509 18.6367 65.9141 17.1829 65.9141 15.3066C65.9141 13.4232 66.3509 11.9694 67.2246 10.9453C68.0983 9.91406 69.3229 9.39844 70.8984 9.39844C72.4811 9.39844 73.7057 9.91406 74.5723 10.9453C75.446 11.9694 75.8828 13.4232 75.8828 15.3066C75.8828 17.1829 75.446 18.6367 74.5723 19.668C73.7057 20.6992 72.4811 21.2148 70.8984 21.2148ZM70.8984 19.1738C71.7363 19.1738 72.3809 18.8372 72.832 18.1641C73.2904 17.4909 73.5195 16.5384 73.5195 15.3066C73.5195 14.0677 73.2904 13.1152 72.832 12.4492C72.3809 11.776 71.7363 11.4395 70.8984 11.4395C70.0605 11.4395 69.4124 11.776 68.9541 12.4492C68.5029 13.1152 68.2773 14.0677 68.2773 15.3066C68.2773 16.5384 68.5029 17.4909 68.9541 18.1641C69.4124 18.8372 70.0605 19.1738 70.8984 19.1738ZM82.6719 21.2148C81.4759 21.2148 80.5485 20.8604 79.8896 20.1514C79.238 19.4352 78.9121 18.429 78.9121 17.1328V9.61328H81.1895V17.1328C81.1895 17.7845 81.3757 18.2894 81.748 18.6475C82.1204 18.9984 82.6432 19.1738 83.3164 19.1738C84.1471 19.1738 84.7738 18.9124 85.1963 18.3896C85.6188 17.8597 85.8301 16.9753 85.8301 15.7363L86.4102 18.8086H85.6582C85.4792 19.582 85.1283 20.1764 84.6055 20.5918C84.0827 21.0072 83.4382 21.2148 82.6719 21.2148ZM86.0234 21.1074L85.8301 18.3789V16.3809H88.1074V18.9375L89.6758 19.1738V21L86.0234 21.1074ZM85.8301 17.7773V9.61328H88.1074V17.1328L85.8301 17.7773ZM109.184 21V10.2578H111.461V21H109.184ZM104.844 21V19.1309H109.398V21H104.844ZM111.246 21V19.1309H114.963V21H111.246ZM105.488 11.4824V9.61328H111.461V11.4824H105.488ZM110.247 7.80859C109.81 7.80859 109.434 7.65462 109.119 7.34668C108.811 7.03158 108.657 6.6556 108.657 6.21875C108.657 5.77474 108.811 5.39876 109.119 5.09082C109.434 4.78288 109.81 4.62891 110.247 4.62891C110.691 4.62891 111.067 4.78288 111.375 5.09082C111.683 5.39876 111.837 5.77474 111.837 6.21875C111.837 6.6556 111.683 7.03158 111.375 7.34668C111.067 7.65462 110.691 7.80859 110.247 7.80859ZM124.824 21V13.5879C124.824 12.9004 124.645 12.3704 124.287 11.998C123.929 11.6257 123.428 11.4395 122.783 11.4395C120.993 11.4395 120.098 12.4922 120.098 14.5977L119.432 11.6758H120.312C120.377 10.9095 120.656 10.3402 121.15 9.96777C121.645 9.58822 122.368 9.39844 123.32 9.39844C124.523 9.39844 125.454 9.76367 126.113 10.4941C126.772 11.2246 127.102 12.2559 127.102 13.5879V21H124.824ZM117.82 21V9.61328H119.883L120.098 12.0195V21H117.82ZM150.305 21.2148C148.579 21.2148 147.329 20.8568 146.556 20.1406C145.789 19.4245 145.406 18.2786 145.406 16.7031V14.7695H147.684V16.5957C147.684 17.498 147.902 18.1533 148.339 18.5615C148.783 18.9697 149.51 19.1738 150.52 19.1738C150.878 19.1738 151.257 19.1559 151.658 19.1201C152.059 19.0771 152.518 19.0234 153.033 18.959L153.291 20.957C152.79 21.043 152.299 21.1074 151.819 21.1504C151.347 21.1934 150.842 21.2148 150.305 21.2148ZM145.406 15.6289V6.17578H147.684V15.6289H145.406ZM142.549 11.4824V9.61328H152.861V11.4824H142.549ZM163.496 21V13.5879C163.496 12.8646 163.317 12.3096 162.959 11.9229C162.601 11.529 162.1 11.332 161.455 11.332C159.665 11.332 158.77 12.4206 158.77 14.5977L158.104 11.6758H158.984C159.049 10.9095 159.328 10.3402 159.822 9.96777C160.316 9.58822 161.04 9.39844 161.992 9.39844C163.195 9.39844 164.126 9.76367 164.785 10.4941C165.444 11.2246 165.773 12.2559 165.773 13.5879V21H163.496ZM156.492 21V4.88672H158.77V21H156.492ZM175.119 21.2148C173.178 21.2148 171.678 20.7064 170.618 19.6895C169.565 18.6654 169.039 17.1973 169.039 15.2852C169.039 13.4232 169.487 11.9766 170.382 10.9453C171.277 9.91406 172.541 9.39844 174.174 9.39844C175.714 9.39844 176.902 9.86393 177.74 10.7949C178.585 11.7259 179.008 13.0794 179.008 14.8555C179.008 15.3783 178.986 15.8652 178.943 16.3164H170.951V14.5762H176.945C176.945 13.5521 176.702 12.7679 176.215 12.2236C175.728 11.6722 175.055 11.3965 174.195 11.3965C173.229 11.3965 172.477 11.7259 171.939 12.3848C171.41 13.0436 171.145 13.9746 171.145 15.1777C171.145 16.4954 171.51 17.498 172.24 18.1855C172.978 18.873 174.023 19.2168 175.377 19.2168C175.85 19.2168 176.315 19.1917 176.773 19.1416C177.232 19.0843 177.697 19.0091 178.17 18.916L178.449 20.9141C177.776 21.043 177.16 21.1253 176.602 21.1611C176.043 21.1969 175.549 21.2148 175.119 21.2148ZM202.168 21V13.5879C202.168 12.9004 201.989 12.3704 201.631 11.998C201.273 11.6257 200.771 11.4395 200.127 11.4395C198.337 11.4395 197.441 12.4922 197.441 14.5977L196.775 11.6758H197.656C197.721 10.9095 198 10.3402 198.494 9.96777C198.988 9.58822 199.712 9.39844 200.664 9.39844C201.867 9.39844 202.798 9.76367 203.457 10.4941C204.116 11.2246 204.445 12.2559 204.445 13.5879V21H202.168ZM195.164 21V9.61328H197.227L197.441 12.0195V21H195.164ZM213.791 21.2148C211.85 21.2148 210.35 20.7064 209.29 19.6895C208.237 18.6654 207.711 17.1973 207.711 15.2852C207.711 13.4232 208.159 11.9766 209.054 10.9453C209.949 9.91406 211.213 9.39844 212.846 9.39844C214.385 9.39844 215.574 9.86393 216.412 10.7949C217.257 11.7259 217.68 13.0794 217.68 14.8555C217.68 15.3783 217.658 15.8652 217.615 16.3164H209.623V14.5762H215.617C215.617 13.5521 215.374 12.7679 214.887 12.2236C214.4 11.6722 213.727 11.3965 212.867 11.3965C211.9 11.3965 211.148 11.7259 210.611 12.3848C210.081 13.0436 209.816 13.9746 209.816 15.1777C209.816 16.4954 210.182 17.498 210.912 18.1855C211.65 18.873 212.695 19.2168 214.049 19.2168C214.521 19.2168 214.987 19.1917 215.445 19.1416C215.904 19.0843 216.369 19.0091 216.842 18.916L217.121 20.9141C216.448 21.043 215.832 21.1253 215.273 21.1611C214.715 21.1969 214.221 21.2148 213.791 21.2148ZM220.279 21L224.812 14.7266L228.314 9.61328H230.893L226.188 16.0801L222.857 21H220.279ZM228.314 21L224.855 16.0801L220.279 9.61328H222.857L226.359 14.7266L230.893 21H228.314ZM240.539 21.2148C238.813 21.2148 237.563 20.8568 236.79 20.1406C236.024 19.4245 235.641 18.2786 235.641 16.7031V14.7695H237.918V16.5957C237.918 17.498 238.136 18.1533 238.573 18.5615C239.017 18.9697 239.744 19.1738 240.754 19.1738C241.112 19.1738 241.492 19.1559 241.893 19.1201C242.294 19.0771 242.752 19.0234 243.268 18.959L243.525 20.957C243.024 21.043 242.534 21.1074 242.054 21.1504C241.581 21.1934 241.076 21.2148 240.539 21.2148ZM235.641 15.6289V6.17578H237.918V15.6289H235.641ZM232.783 11.4824V9.61328H243.096V11.4824H232.783ZM265.354 21.2148C263.413 21.2148 261.912 20.7064 260.853 19.6895C259.8 18.6654 259.273 17.1973 259.273 15.2852C259.273 13.4232 259.771 11.9766 260.767 10.9453C261.769 9.91406 263.198 9.39844 265.053 9.39844C266.163 9.39844 267.112 9.60612 267.899 10.0215C268.694 10.4297 269.26 11.0098 269.597 11.7617L267.846 13.083C267.523 12.5602 267.112 12.1556 266.61 11.8691C266.109 11.5827 265.561 11.4395 264.967 11.4395C263.893 11.4395 263.058 11.7653 262.464 12.417C261.869 13.0615 261.572 13.9818 261.572 15.1777C261.572 16.474 261.92 17.4658 262.614 18.1533C263.316 18.8337 264.315 19.1738 265.611 19.1738C266.141 19.1738 266.671 19.1488 267.201 19.0986C267.731 19.0485 268.247 18.9805 268.748 18.8945L269.006 20.8926C268.419 21.0215 267.81 21.1074 267.18 21.1504C266.557 21.1934 265.948 21.2148 265.354 21.2148ZM277.148 21.2148C275.573 21.2148 274.348 20.6992 273.475 19.668C272.601 18.6367 272.164 17.1829 272.164 15.3066C272.164 13.4232 272.601 11.9694 273.475 10.9453C274.348 9.91406 275.573 9.39844 277.148 9.39844C278.731 9.39844 279.956 9.91406 280.822 10.9453C281.696 11.9694 282.133 13.4232 282.133 15.3066C282.133 17.1829 281.696 18.6367 280.822 19.668C279.956 20.6992 278.731 21.2148 277.148 21.2148ZM277.148 19.1738C277.986 19.1738 278.631 18.8372 279.082 18.1641C279.54 17.4909 279.77 16.5384 279.77 15.3066C279.77 14.0677 279.54 13.1152 279.082 12.4492C278.631 11.776 277.986 11.4395 277.148 11.4395C276.311 11.4395 275.662 11.776 275.204 12.4492C274.753 13.1152 274.527 14.0677 274.527 15.3066C274.527 16.5384 274.753 17.4909 275.204 18.1641C275.662 18.8372 276.311 19.1738 277.148 19.1738ZM293.004 21V12.2988C293.004 11.5111 292.71 11.1172 292.123 11.1172C291.378 11.1172 291.006 11.6328 291.006 12.6641L290.232 11.0312H291.113C291.149 10.5872 291.325 10.2041 291.64 9.88184C291.962 9.55957 292.424 9.39844 293.025 9.39844C293.813 9.39844 294.386 9.6097 294.744 10.0322C295.102 10.4548 295.281 11.1387 295.281 12.084V21H293.004ZM284.797 21V9.61328H286.816L287.074 12.0195V21H284.797ZM289.072 21V12.084C289.072 11.4395 288.771 11.1172 288.17 11.1172C287.439 11.1172 287.074 11.6328 287.074 12.6641L286.408 11.0312H287.139C287.225 9.94271 287.876 9.39844 289.094 9.39844C289.688 9.39844 290.154 9.60254 290.49 10.0107C290.834 10.4189 291.006 11.0384 291.006 11.8691V21H289.072ZM305.895 21V12.2988C305.895 11.5111 305.601 11.1172 305.014 11.1172C304.269 11.1172 303.896 11.6328 303.896 12.6641L303.123 11.0312H304.004C304.04 10.5872 304.215 10.2041 304.53 9.88184C304.853 9.55957 305.314 9.39844 305.916 9.39844C306.704 9.39844 307.277 9.6097 307.635 10.0322C307.993 10.4548 308.172 11.1387 308.172 12.084V21H305.895ZM297.688 21V9.61328H299.707L299.965 12.0195V21H297.688ZM301.963 21V12.084C301.963 11.4395 301.662 11.1172 301.061 11.1172C300.33 11.1172 299.965 11.6328 299.965 12.6641L299.299 11.0312H300.029C300.115 9.94271 300.767 9.39844 301.984 9.39844C302.579 9.39844 303.044 9.60254 303.381 10.0107C303.725 10.4189 303.896 11.0384 303.896 11.8691V21H301.963ZM315.434 21V10.2578H317.711V21H315.434ZM311.094 21V19.1309H315.648V21H311.094ZM317.496 21V19.1309H321.213V21H317.496ZM311.738 11.4824V9.61328H317.711V11.4824H311.738ZM316.497 7.80859C316.06 7.80859 315.684 7.65462 315.369 7.34668C315.061 7.03158 314.907 6.6556 314.907 6.21875C314.907 5.77474 315.061 5.39876 315.369 5.09082C315.684 4.78288 316.06 4.62891 316.497 4.62891C316.941 4.62891 317.317 4.78288 317.625 5.09082C317.933 5.39876 318.087 5.77474 318.087 6.21875C318.087 6.6556 317.933 7.03158 317.625 7.34668C317.317 7.65462 316.941 7.80859 316.497 7.80859ZM330.773 21.2148C329.048 21.2148 327.798 20.8568 327.024 20.1406C326.258 19.4245 325.875 18.2786 325.875 16.7031V14.7695H328.152V16.5957C328.152 17.498 328.371 18.1533 328.808 18.5615C329.252 18.9697 329.979 19.1738 330.988 19.1738C331.346 19.1738 331.726 19.1559 332.127 19.1201C332.528 19.0771 332.986 19.0234 333.502 18.959L333.76 20.957C333.258 21.043 332.768 21.1074 332.288 21.1504C331.815 21.1934 331.311 21.2148 330.773 21.2148ZM325.875 15.6289V6.17578H328.152V15.6289H325.875ZM323.018 11.4824V9.61328H333.33V11.4824H323.018ZM341.602 21.2148C341.165 21.2148 340.789 21.0609 340.474 20.7529C340.166 20.4378 340.012 20.0618 340.012 19.625C340.012 19.181 340.166 18.805 340.474 18.4971C340.789 18.1891 341.165 18.0352 341.602 18.0352C342.046 18.0352 342.422 18.1891 342.729 18.4971C343.037 18.805 343.191 19.181 343.191 19.625C343.191 20.0618 343.037 20.4378 342.729 20.7529C342.422 21.0609 342.046 21.2148 341.602 21.2148Z" fill="#C4B5FD"/>
<g id="Frame" filter="url(#filter0_f_2113_9624)" transform="translate(731 106)">
<path id="Vector_8" transform="translate(41)" d="M4 8C6.20914 8 8 6.20914 8 4C8 1.79086 6.20914 0 4 0C1.79086 0 0 1.79086 0 4C0 6.20914 1.79086 8 4 8Z" fill="#C084FC"/>
<path id="Vector_9" transform="translate(92 61)" d="M3 6C4.65685 6 6 4.65685 6 3C6 1.34315 4.65685 0 3 0C1.34315 0 0 1.34315 0 3C0 4.65685 1.34315 6 3 6Z" fill="#C084FC"/>
<path id="Vector_10" transform="translate(0 129)" d="M5 10C7.76142 10 10 7.76142 10 5C10 2.23858 7.76142 0 5 0C2.23858 0 0 2.23858 0 5C0 7.76142 2.23858 10 5 10Z" fill="#C084FC"/>
</g>
</g>
<defs>
<filter id="filter0_f_2113_9624" x="-12" y="-12" width="122" height="163" filterUnits="userSpaceOnUse" color-interpolation-filters="sRGB">
<feFlood flood-opacity="0" result="BackgroundImageFix"/>
<feBlend mode="normal" in="SourceGraphic" in2="BackgroundImageFix" result="shape"/>
<feGaussianBlur stdDeviation="6" result="effect1_foregroundBlur_2113_9624"/>
</filter>
<linearGradient id="paint0_linear_2113_9624" x1="0" y1="0" x2="242.365" y2="621.483" gradientUnits="userSpaceOnUse">
<stop stop-color="#0B0F17"/>
<stop offset="1" stop-color="#15102A"/>
</linearGradient>
<clipPath id="clip0_2113_9624">
<rect width="920" height="360" fill="white"/>
</clipPath>
</defs>
</svg>
