<svg xmlns="http://www.w3.org/2000/svg" width="920" height="465" viewBox="0 0 920 465" role="img"><defs><linearGradient id="background" x2="1" y2="1"><stop stop-color="#0b0f17"/><stop offset="1" stop-color="#15102a"/></linearGradient><linearGradient id="line" x2="1"><stop stop-color="#8b5cf6" stop-opacity=".12"/><stop offset=".5" stop-color="#c084fc"/><stop offset="1" stop-color="#8b5cf6" stop-opacity=".12"/></linearGradient></defs><rect x="1" y="1" width="918" height="463" rx="20" fill="url(#background)" stroke="#8b5cf6" stroke-opacity=".72" stroke-width="2"/><rect x="18" y="18" width="884" height="429" rx="13" fill="none" stroke="#fff" stroke-opacity=".055"/><circle cx="48" cy="48" r="6" fill="#ff5f57"/><circle cx="70" cy="48" r="6" fill="#febc2e"/><circle cx="92" cy="48" r="6" fill="#28c840"/><text x="124" y="55" fill="#c4b5fd" font-family="ui-monospace, SFMono-Regular, Menlo, Consolas, monospace" font-size="20" font-weight="700">&gt; github-status</text><rect x="42" y="82" width="836" height="1" fill="url(#line)"/><text x="42" y="125" fill="#94a3b8" font-family="ui-monospace, SFMono-Regular, Menlo, Consolas, monospace" font-size="13">PUBLIC REPOS</text><text x="42" y="157" fill="#f5f3ff" font-family="ui-monospace, SFMono-Regular, Menlo, Consolas, monospace" font-size="25" font-weight="700">5</text><text x="254" y="125" fill="#94a3b8" font-family="ui-monospace, SFMono-Regular, Menlo, Consolas, monospace" font-size="13">STARS</text><text x="254" y="157" fill="#f5f3ff" font-family="ui-monospace, SFMono-Regular, Menlo, Consolas, monospace" font-size="25" font-weight="700">2</text><text x="466" y="125" fill="#94a3b8" font-family="ui-monospace, SFMono-Regular, Menlo, Consolas, monospace" font-size="13">FOLLOWERS</text><text x="466" y="157" fill="#f5f3ff" font-family="ui-monospace, SFMono-Regular, Menlo, Consolas, monospace" font-size="25" font-weight="700">3</text><text x="678" y="125" fill="#94a3b8" font-family="ui-monospace, SFMono-Regular, Menlo, Consolas, monospace" font-size="13">CONTRIBUTIONS</text><text x="678" y="157" fill="#f5f3ff" font-family="ui-monospace, SFMono-Regular, Menlo, Consolas, monospace" font-size="25" font-weight="700">N/A</text><text x="42" y="192" fill="#94a3b8" font-family="ui-monospace, SFMono-Regular, Menlo, Consolas, monospace" font-size="13">CONTRIBUTION ACTIVITY / LAST 24 WEEKS</text><rect x="42" y="202" width="17" height="17" rx="3" fill="#171427"/><rect x="42" y="227" width="17" height="17" rx="3" fill="#171427"/><rect x="42" y="252" width="17" height="17" rx="3" fill="#171427"/><rect x="42" y="277" width="17" height="17" rx="3" fill="#171427"/><rect x="42" y="302" width="17" height="17" rx="3" fill="#171427"/><rect x="42" y="327" width="17" height="17" rx="3" fill="#171427"/><rect x="42" y="352" width="17" height="17" rx="3" fill="#171427"/><rect x="73" y="202" width="17" height="17" rx="3" fill="#171427"/><rect x="73" y="227" width="17" height="17" rx="3" fill="#171427"/><rect x="73" y="252" width="17" height="17" rx="3" fill="#171427"/><rect x="73" y="277" width="17" height="17" rx="3" fill="#171427"/><rect x="73" y="302" width="17" height="17" rx="3" fill="#171427"/><rect x="73" y="327" width="17" height="17" rx="3" fill="#171427"/><rect x="73" y="352" width="17" height="17" rx="3" fill="#171427"/><rect x="104" y="202" width="17" height="17" rx="3" fill="#171427"/><rect x="104" y="227" width="17" height="17" rx="3" fill="#171427"/><rect x="104" y="252" width="17" height="17" rx="3" fill="#171427"/><rect x="104" y="277" width="17" height="17" rx="3" fill="#171427"/><rect x="104" y="302" width="17" height="17" rx="3" fill="#171427"/><rect x="104" y="327" width="17" height="17" rx="3" fill="#171427"/><rect x="104" y="352" width="17" height="17" rx="3" fill="#171427"/><rect x="135" y="202" width="17" height="17" rx="3" fill="#171427"/><rect x="135" y="227" width="17" height="17" rx="3" fill="#171427"/><rect x="135" y="252" width="17" height="17" rx="3" fill="#171427"/><rect x="135" y="277" width="17" height="17" rx="3" fill="#171427"/><rect x="135" y="302" width="17" height="17" rx="3" fill="#171427"/><rect x="135" y="327" width="17" height="17" rx="3" fill="#171427"/><rect x="135" y="352" width="17" height="17" rx="3" fill="#171427"/><rect x="166" y="202" width="17" height="17" rx="3" fill="#171427"/><rect x="166" y="227" width="17" height="17" rx="3" fill="#171427"/><rect x="166" y="252" width="17" height="17" rx="3" fill="#171427"/><rect x="166" y="277" width="17" height="17" rx="3" fill="#171427"/><rect x="166" y="302" width="17" height="17" rx="3" fill="#171427"/><rect x="166" y="327" width="17" height="17" rx="3" fill="#171427"/><rect x="166" y="352" width="17" height="17" rx="3" fill="#171427"/><rect x="197" y="202" width="17" height="17" rx="3" fill="#171427"/><rect x="197" y="227" width="17" height="17" rx="3" fill="#171427"/><rect x="197" y="252" width="17" height="17" rx="3" fill="#171427"/><rect x="197" y="277" width="17" height="17" rx="3" fill="#171427"/><rect x="197" y="302" width="17" height="17" rx="3" fill="#171427"/><rect x="197" y="327" width="17" height="17" rx="3" fill="#171427"/><rect x="197" y="352" width="17" height="17" rx="3" fill="#171427"/><rect x="228" y="202" width="17" height="17" rx="3" fill="#171427"/><rect x="228" y="227" width="17" height="17" rx="3" fill="#171427"/><rect x="228" y="252" width="17" height="17" rx="3" fill="#171427"/><rect x="228" y="277" width="17" height="17" rx="3" fill="#171427"/><rect x="228" y="302" width="17" height="17" rx="3" fill="#171427"/><rect x="228" y="327" width="17" height="17" rx="3" fill="#171427"/><rect x="228" y="352" width="17" height="17" rx="3" fill="#171427"/><rect x="259" y="202" width="17" height="17" rx="3" fill="#171427"/><rect x="259" y="227" width="17" height="17" rx="3" fill="#171427"/><rect x="259" y="252" width="17" height="17" rx="3" fill="#171427"/><rect x="259" y="277" width="17" height="17" rx="3" fill="#171427"/><rect x="259" y="302" width="17" height="17" rx="3" fill="#171427"/><rect x="259" y="327" width="17" height="17" rx="3" fill="#171427"/><rect x="259" y="352" width="17" height="17" rx="3" fill="#171427"/><rect x="290" y="202" width="17" height="17" rx="3" fill="#171427"/><rect x="290" y="227" width="17" height="17" rx="3" fill="#171427"/><rect x="290" y="252" width="17" height="17" rx="3" fill="#171427"/><rect x="290" y="277" width="17" height="17" rx="3" fill="#171427"/><rect x="290" y="302" width="17" height="17" rx="3" fill="#171427"/><rect x="290" y="327" width="17" height="17" rx="3" fill="#171427"/><rect x="290" y="352" width="17" height="17" rx="3" fill="#171427"/><rect x="321" y="202" width="17" height="17" rx="3" fill="#171427"/><rect x="321" y="227" width="17" height="17" rx="3" fill="#171427"/><rect x="321" y="252" width="17" height="17" rx="3" fill="#171427"/><rect x="321" y="277" width="17" height="17" rx="3" fill="#171427"/><rect x="321" y="302" width="17" height="17" rx="3" fill="#171427"/><rect x="321" y="327" width="17" height="17" rx="3" fill="#171427"/><rect x="321" y="352" width="17" height="17" rx="3" fill="#171427"/><rect x="352" y="202" width="17" height="17" rx="3" fill="#171427"/><rect x="352" y="227" width="17" height="17" rx="3" fill="#171427"/><rect x="352" y="252" width="17" height="17" rx="3" fill="#171427"/><rect x="352" y="277" width="17" height="17" rx="3" fill="#171427"/><rect x="352" y="302" width="17" height="17" rx="3" fill="#171427"/><rect x="352" y="327" width="17" height="17" rx="3" fill="#171427"/><rect x="352" y="352" width="17" height="17" rx="3" fill="#171427"/><rect x="383" y="202" width="17" height="17" rx="3" fill="#171427"/><rect x="383" y="227" width="17" height="17" rx="3" fill="#171427"/><rect x="383" y="252" width="17" height="17" rx="3" fill="#171427"/><rect x="383" y="277" width="17" height="17" rx="3" fill="#171427"/><rect x="383" y="302" width="17" height="17" rx="3" fill="#171427"/><rect x="383" y="327" width="17" height="17" rx="3" fill="#171427"/><rect x="383" y="352" width="17" height="17" rx="3" fill="#171427"/><rect x="414" y="202" width="17" height="17" rx="3" fill="#171427"/><rect x="414" y="227" width="17" height="17" rx="3" fill="#171427"/><rect x="414" y="252" width="17" height="17" rx="3" fill="#171427"/><rect x="414" y="277" width="17" height="17" rx="3" fill="#171427"/><rect x="414" y="302" width="17" height="17" rx="3" fill="#171427"/><rect x="414" y="327" width="17" height="17" rx="3" fill="#171427"/><rect x="414" y="352" width="17" height="17" rx="3" fill="#171427"/><rect x="445" y="202" width="17" height="17" rx="3" fill="#171427"/><rect x="445" y="227" width="17" height="17" rx="3" fill="#171427"/><rect x="445" y="252" width="17" height="17" rx="3" fill="#171427"/><rect x="445" y="277" width="17" height="17" rx="3" fill="#171427"/><rect x="445" y="302" width="17" height="17" rx="3" fill="#171427"/><rect x="445" y="327" width="17" height="17" rx="3" fill="#171427"/><rect x="445" y="352" width="17" height="17" rx="3" fill="#171427"/><rect x="476" y="202" width="17" height="17" rx="3" fill="#171427"/><rect x="476" y="227" width="17" height="17" rx="3" fill="#171427"/><rect x="476" y="252" width="17" height="17" rx="3" fill="#171427"/><rect x="476" y="277" width="17" height="17" rx="3" fill="#171427"/><rect x="476" y="302" width="17" height="17" rx="3" fill="#171427"/><rect x="476" y="327" width="17" height="17" rx="3" fill="#171427"/><rect x="476" y="352" width="17" height="17" rx="3" fill="#171427"/><rect x="507" y="202" width="17" height="17" rx="3" fill="#171427"/><rect x="507" y="227" width="17" height="17" rx="3" fill="#171427"/><rect x="507" y="252" width="17" height="17" rx="3" fill="#171427"/><rect x="507" y="277" width="17" height="17" rx="3" fill="#171427"/><rect x="507" y="302" width="17" height="17" rx="3" fill="#171427"/><rect x="507" y="327" width="17" height="17" rx="3" fill="#171427"/><rect x="507" y="352" width="17" height="17" rx="3" fill="#171427"/><rect x="538" y="202" width="17" height="17" rx="3" fill="#171427"/><rect x="538" y="227" width="17" height="17" rx="3" fill="#171427"/><rect x="538" y="252" width="17" height="17" rx="3" fill="#171427"/><rect x="538" y="277" width="17" height="17" rx="3" fill="#171427"/><rect x="538" y="302" width="17" height="17" rx="3" fill="#171427"/><rect x="538" y="327" width="17" height="17" rx="3" fill="#171427"/><rect x="538" y="352" width="17" height="17" rx="3" fill="#171427"/><rect x="569" y="202" width="17" height="17" rx="3" fill="#171427"/><rect x="569" y="227" width="17" height="17" rx="3" fill="#171427"/><rect x="569" y="252" width="17" height="17" rx="3" fill="#171427"/><rect x="569" y="277" width="17" height="17" rx="3" fill="#171427"/><rect x="569" y="302" width="17" height="17" rx="3" fill="#171427"/><rect x="569" y="327" width="17" height="17" rx="3" fill="#171427"/><rect x="569" y="352" width="17" height="17" rx="3" fill="#171427"/><rect x="600" y="202" width="17" height="17" rx="3" fill="#171427"/><rect x="600" y="227" width="17" height="17" rx="3" fill="#171427"/><rect x="600" y="252" width="17" height="17" rx="3" fill="#171427"/><rect x="600" y="277" width="17" height="17" rx="3" fill="#171427"/><rect x="600" y="302" width="17" height="17" rx="3" fill="#171427"/><rect x="600" y="327" width="17" height="17" rx="3" fill="#171427"/><rect x="600" y="352" width="17" height="17" rx="3" fill="#171427"/><rect x="631" y="202" width="17" height="17" rx="3" fill="#171427"/><rect x="631" y="227" width="17" height="17" rx="3" fill="#171427"/><rect x="631" y="252" width="17" height="17" rx="3" fill="#171427"/><rect x="631" y="277" width="17" height="17" rx="3" fill="#171427"/><rect x="631" y="302" width="17" height="17" rx="3" fill="#171427"/><rect x="631" y="327" width="17" height="17" rx="3" fill="#171427"/><rect x="631" y="352" width="17" height="17" rx="3" fill="#171427"/><rect x="662" y="202" width="17" height="17" rx="3" fill="#171427"/><rect x="662" y="227" width="17" height="17" rx="3" fill="#171427"/><rect x="662" y="252" width="17" height="17" rx="3" fill="#171427"/><rect x="662" y="277" width="17" height="17" rx="3" fill="#171427"/><rect x="662" y="302" width="17" height="17" rx="3" fill="#171427"/><rect x="662" y="327" width="17" height="17" rx="3" fill="#171427"/><rect x="662" y="352" width="17" height="17" rx="3" fill="#171427"/><rect x="693" y="202" width="17" height="17" rx="3" fill="#171427"/><rect x="693" y="227" width="17" height="17" rx="3" fill="#171427"/><rect x="693" y="252" width="17" height="17" rx="3" fill="#171427"/><rect x="693" y="277" width="17" height="17" rx="3" fill="#171427"/><rect x="693" y="302" width="17" height="17" rx="3" fill="#171427"/><rect x="693" y="327" width="17" height="17" rx="3" fill="#171427"/><rect x="693" y="352" width="17" height="17" rx="3" fill="#171427"/><rect x="724" y="202" width="17" height="17" rx="3" fill="#171427"/><rect x="724" y="227" width="17" height="17" rx="3" fill="#171427"/><rect x="724" y="252" width="17" height="17" rx="3" fill="#171427"/><rect x="724" y="277" width="17" height="17" rx="3" fill="#171427"/><rect x="724" y="302" width="17" height="17" rx="3" fill="#171427"/><rect x="724" y="327" width="17" height="17" rx="3" fill="#171427"/><rect x="724" y="352" width="17" height="17" rx="3" fill="#171427"/><rect x="755" y="202" width="17" height="17" rx="3" fill="#171427"/><rect x="755" y="227" width="17" height="17" rx="3" fill="#171427"/><rect x="755" y="252" width="17" height="17" rx="3" fill="#171427"/><rect x="755" y="277" width="17" height="17" rx="3" fill="#171427"/><rect x="755" y="302" width="17" height="17" rx="3" fill="#171427"/><rect x="755" y="327" width="17" height="17" rx="3" fill="#171427"/><rect x="755" y="352" width="17" height="17" rx="3" fill="#171427"/><text x="42" y="403" fill="#64748b" font-family="ui-monospace, SFMono-Regular, Menlo, Consolas, monospace" font-size="12">LESS</text><rect x="83" y="393" width="14" height="14" rx="3" fill="#171427"/><rect x="103" y="393" width="14" height="14" rx="3" fill="#2a1e45"/><rect x="123" y="393" width="14" height="14" rx="3" fill="#5b3c91"/><rect x="143" y="393" width="14" height="14" rx="3" fill="#8b5cf6"/><rect x="163" y="393" width="14" height="14" rx="3" fill="#c084fc"/><text x="187" y="404" fill="#64748b" font-family="ui-monospace, SFMono-Regular, Menlo, Consolas, monospace" font-size="12">MORE</text><rect x="42" y="411" width="836" height="1" fill="url(#line)"/><text x="42" y="436" fill="#64748b" font-family="ui-monospace, SFMono-Regular, Menlo, Consolas, monospace" font-size="12">AUTO-REFRESH: EVERY 6 HOURS</text></svg>